<?xml version="1.0" encoding="utf-8"?>
<!-- Generator: Adobe Illustrator 24.3.0, SVG Export Plug-In . SVG Version: 6.00 Build 0)  -->
<svg version="1.1" id="Layer_1" xmlns="http://www.w3.org/2000/svg" xmlns:xlink="http://www.w3.org/1999/xlink" x="0px" y="0px"
	 viewBox="0 0 1219.9 136.9" style="enable-background:new 0 0 1219.9 136.9;" xml:space="preserve">
<style type="text/css">
	.st0{fill:#FFB703;}
	.st1{stroke:#000000;stroke-width:5;stroke-linejoin:round;stroke-miterlimit:10;}
</style>
<path d="M287.4,10.8v117.2h-21.5V51.1l-36.2,50.6H217l-36.2-50.6V128h-21.7V10.8H176l47.1,66l47.3-66H287.4z"/>
<path d="M368.5,10.8l46.8,117.2h-21.8l-10.6-26.3h-57.1l-10.6,26.3h-22l47-117.2H368.5z M333.5,81.9h41.4l-20.8-51.7L333.5,81.9z"/>
<path d="M500,87.7l30.1,40.2h-25.5l-26.9-36h-35.4V128h-21.7V10.8H482c11.3,0,21,3.9,29,11.9c8.1,8,12.1,17.5,12.1,28.6
	c0,8-2.1,15.1-6.3,21.7C512.7,79.3,507,84.3,500,87.7z M481.5,70.9c5.5,0,10.4-1.9,14.2-5.7c3.9-3.8,5.8-8.5,5.8-13.9
	s-1.9-10.2-5.8-14c-3.9-3.8-8.7-5.7-14.2-5.7h-39.2v39.4h39.2V70.9z"/>
<path d="M637.8,10.8L587,64.3l56.3,63.5h-27l-43.4-48.8l-15.4,16.4v32.4h-21.7V10.8h21.7v56.3l53.3-56.3H637.8z"/>
<path d="M834.8,98.8l14.6,15.7c-12,11.1-25.9,16.6-41.9,16.6c-17,0-31.5-6-43.5-18.1c-12.1-12.1-18.1-26.7-18.1-43.6
	c0-17,6-31.5,18.1-43.5C776,13.7,790.5,7.7,807.4,7.7c16.2,0,30.1,5.4,41.9,16.2l-14.7,15.8C826.9,32.5,818,29,807.6,29
	c-11.1,0-20.5,3.9-28.3,11.8c-7.9,7.9-11.7,17.3-11.7,28.4s3.9,20.6,11.7,28.4c7.9,7.9,17.2,11.8,28.3,11.8
	C818,109.4,827,105.8,834.8,98.8z"/>
<path d="M1063.2,87.7l30.1,40.2h-25.5l-27-36.1h-35.4v36.1h-21.7V10.8h61.5c11.3,0,21,3.9,29,11.9s12.1,17.5,12.1,28.6
	c0,8-2.1,15.1-6.3,21.7C1075.9,79.3,1070.3,84.3,1063.2,87.7z M1044.8,70.9c5.5,0,10.4-1.9,14.2-5.7c3.9-3.8,5.8-8.5,5.8-13.9
	s-1.9-10.2-5.8-14s-8.7-5.7-14.2-5.7h-39.2v39.4h39.2V70.9z"/>
<path d="M1150.6,10.8c16,0,29.6,5.7,40.8,17.1s16.8,25.2,16.8,41.4s-5.6,30-16.9,41.5s-24.9,17.1-40.7,17.1h-50.5V10.8H1150.6z
	 M1149.8,106.9c10.2,0,18.8-3.7,26.1-11.1s10.8-16.2,10.8-26.6s-3.6-19.2-10.8-26.6c-7.2-7.4-15.9-11.1-26.1-11.1h-28.1V107
	L1149.8,106.9z"/>
<path d="M930.3,10.8l46.8,117.2h-21.8l-10.6-26.3h-57.1l-10.6,26.3h-22l47-117.2H930.3z M895.5,81.9H937l-20.8-51.7L895.5,81.9z"/>
<path d="M706,10.5l46.7,117.2H731l-10.6-26.3h-57.1l-10.6,26.3l-15.1-17l40.1-100.2L706,10.5z M671.2,81.7h41.4L691.8,30L671.2,81.7
	z"/>
<path d="M125.1,47.3L92.4,14.7C81,3.2,62.3,3.2,50.8,14.7L18.2,47.3c-11.4,11.4-11.4,30.2,0,41.6l32.6,32.6
	c11.4,11.4,30.2,11.4,41.6,0l32.6-32.6C136.5,77.5,136.5,58.8,125.1,47.3L125.1,47.3z"/>
<path class="st0" d="M71.1,122.6c-5.9,0-11.4-2.3-15.5-6.4L22.9,83.5c-4.1-4.1-6.4-9.6-6.4-15.5s2.3-11.4,6.4-15.5l32.6-32.6
	c4.1-4.1,9.6-6.4,15.5-6.4c5.9,0,11.4,2.3,15.5,6.4l32.6,32.6c4.1,4.1,6.4,9.6,6.4,15.5c0,5.9-2.3,11.4-6.4,15.5l-32.6,32.6
	C82.4,120.3,76.9,122.6,71.1,122.6L71.1,122.6z"/>
<path class="st1" d="M102.8,45.3c-0.1-0.2-0.1-0.4-0.3-0.6c-0.2-0.2-0.3-0.2-0.6-0.3h-0.1c-0.5,0.2-0.8,0.3-1.1,0.7
	c-0.1,0.1-0.1,0.2-0.2,0.3c-0.1,0.1-0.1,0.2-0.1,0.3c-0.1,0.2-0.3,0.2-0.5,0.2c-0.2,0.1-0.4,0.3-0.6,0.5c-0.2,0.2-0.3,0.3-0.5,0.5
	c-0.4,0.4-0.8,0.7-1.2,1.1c-0.4,0.4-0.7,0.7-1.2,1.1c-0.4,0.3-0.7,0.7-1,1.1c-0.2,0.2-0.3,0.4-0.5,0.5s-0.4,0.2-0.6,0.3
	c-0.4,0.3-0.6,0.7-1,1c-0.2,0.2-0.4,0.2-0.6,0.4c-0.1,0.1-0.2,0.2-0.2,0.2c-0.1,0.1-0.1,0.2-0.2,0.3c-0.2,0.2-0.5,0.2-0.6,0.4
	c-0.2,0.1-0.3,0.2-0.5,0.5c-0.1,0.2-0.1,0.5-0.3,0.6c-0.2,0.2-0.4,0.3-0.5,0.5c-0.4,0.4-0.7,0.7-1.2,1.1c-0.2,0.2-0.4,0.3-0.5,0.6
	c-0.1,0.1-0.1,0.2-0.1,0.3c0,0.1-0.2,0.2-0.2,0.3c-1.5,1.4-3.2,2.7-4.3,4.3c-0.2,0.2-0.3,0.4-0.5,0.6c-0.2,0.2-0.2,0.3-0.4,0.5
	s-0.5,0.3-0.5,0.5c0,0.1-0.1,0.2-0.1,0.3c0,0.1,0,0.2-0.1,0.2c-0.2,0.3-0.8,0.2-1.2,0.6c-0.2,0.2-0.1,0.4-0.2,0.6
	c-0.2,0.2-0.3,0.3-0.5,0.5c-0.1,0.2-0.1,0.4-0.2,0.6c-0.1,0.2-0.3,0.4-0.5,0.5c-0.2,0.2-0.4,0.4-0.5,0.6c-0.2,0.2-0.3,0.4-0.5,0.5
	c-0.3,0.3-0.5,0.7-0.9,1.1c-0.4,0.4-0.7,0.7-1.1,1.1S76.3,70.6,76,71c-0.2,0.2-0.1,0.4-0.2,0.6c-0.2,0.2-0.3,0.4-0.5,0.6
	c-0.3,0.4-0.6,0.7-0.9,1.1s-0.6,0.7-0.9,1.1c-0.6,0.7-1.2,1.5-1.7,2.2c-0.6,0.7-1.2,1.5-1.8,2.2c-0.6,0.7-1.2,1.5-1.8,2.2
	c-0.6,0.7-1.2,1.5-1.8,2.2c-0.3,0.3-0.6,0.7-0.9,1.1c-0.1,0.1-0.1,0.2-0.1,0.3c0,0.1-0.1,0.2-0.1,0.3c-0.1,0.2-0.4,0.3-0.5,0.4
	c-0.4,0.3-0.4,0.8-0.7,1.1c-0.2,0.2-0.3,0.4-0.5,0.6c-0.2,0.2-0.3,0.3-0.5,0.5H63c0-0.2-0.1-0.3-0.1-0.5c0-0.1,0-0.2-0.1-0.2
	c0-0.1-0.1-0.2-0.1-0.2c0-0.1,0-0.2,0-0.2c0-0.1-0.1-0.1-0.2-0.2c0-0.2,0-0.3,0.1-0.5c0.1-0.2,0.1-0.2,0-0.5
	c-0.1-0.2-0.1-0.3-0.1-0.5c-0.1-0.3-0.3-0.6-0.4-0.9c-0.2-0.5-0.5-1.1-0.6-1.6c-0.1-0.2-0.1-0.3-0.2-0.5c0-0.1,0-0.1-0.1-0.2
	c0,0,0-0.2-0.1-0.2c-0.1-0.3-0.2-0.5-0.4-0.8c-0.1-0.1-0.1-0.3-0.1-0.4c-0.1-0.1-0.2-0.2-0.2-0.4c-0.1-0.3-0.2-0.5-0.3-0.8
	c-0.1-0.3-0.2-0.5-0.4-0.8c-0.1-0.1-0.1-0.3-0.1-0.4c-0.1-0.1-0.1-0.2-0.2-0.4c-0.1-0.3-0.2-0.5-0.3-0.8c-0.1-0.2-0.2-0.6-0.3-0.8
	c-0.2-0.2-0.2-0.6-0.3-0.8c-0.1-0.2-0.2-0.6-0.3-0.8c-0.2-0.3-0.2-0.6-0.5-0.8S57,73,56.7,72.9c-0.5-0.2-1.1-0.3-1.7-0.5h-0.3
	c-0.1,0-0.2-0.1-0.2-0.1h-0.3c0,0,0,0,0-0.1h-0.3c-0.2-0.1-0.3-0.1-0.5-0.2c-0.2-0.1-0.3-0.2-0.5-0.3c-0.3-0.2-0.6-0.2-1-0.3h-0.4
	c0,0,0,0,0-0.1H51c0,0,0,0,0,0.1h-0.2c-0.3,0.2-0.8,0.5-0.7,0.9c0,0,0,0,0,0.1c0,0,0,0.1-0.1,0.1c0,0.2-0.1,0.2-0.1,0.4
	c0,0.1,0.1,0.3,0.1,0.5c0,0.1,0,0.2,0.1,0.4c0,0.1,0.2,0.3,0.2,0.5c0.2,0.6,0.5,1.1,0.7,1.6c0.2,0.5,0.4,1,0.6,1.5
	c0.1,0.2,0.2,0.5,0.3,0.7c0,0.1,0,0.1,0.1,0.2c0,0,0.1,0.2,0.1,0.2c0,0.1,0.1,0.1,0.1,0.2c0,0.1,0,0.1,0,0.2
	c0.1,0.3,0.2,0.5,0.4,0.8c0,0.1,0,0.2,0.1,0.3c0.1,0.1,0.2,0.2,0.2,0.4c0.2,0.5,0.4,1,0.6,1.5c0.1,0.3,0.2,0.5,0.3,0.8
	c0,0.1,0.1,0.2,0.1,0.3c0,0.1,0,0.1,0.1,0.2c0,0,0.1,0.2,0.1,0.2c0.2,0.5,0.5,1,0.5,1.5c0.1,0.5,0.2,1,0.4,1.5
	c0.1,0.1,0.1,0.3,0.1,0.5c0.1,0.1,0,0.1,0.1,0.1c0,0,0.1,0.2,0.1,0.2c0.1,0.2,0.4,0.5,0.3,0.7h0.1c0,0.2,0.2,0.5,0.2,0.6
	c0.1,0.2,0.2,0.4,0.2,0.5c0.1,0.4,0.3,0.7,0.5,1.1c0.2,0.7,0.6,1.3,0.7,2c0.1,0.3,0.3,0.7,0.5,1c0,0.1,0,0.2,0.1,0.3
	c0,0.1,0.1,0.2,0.1,0.2c0.1,0.2,0.2,0.3,0.2,0.5c0.2,0.3,0.3,0.7,0.5,1c0.1,0.2,0.1,0.4,0.2,0.5c0.1,0.2,0.1,0.3,0.2,0.5
	c0.2,0.3,0.4,0.7,0.8,0.8c0.3,0.2,0.7,0.2,1,0.3h0.3c0,0,0,0,0,0.1h0.3c0,0,0,0,0,0.1h4.2c0,0,0,0,0-0.1h0.3c0,0,0,0,0-0.1h0.2
	c0.4-0.2,0.8-0.3,1.2-0.5c0.4-0.3,0.7-0.7,1-1c0.4-0.7,0.9-1.3,1.3-2c0.2-0.3,0.4-0.7,0.6-1c0.1-0.2,0.2-0.3,0.3-0.5
	c0.1-0.2,0.2-0.3,0.3-0.5c0.1-0.2,0.2-0.3,0.2-0.5c0-0.2,0-0.3,0-0.5c0,0,0,0-0.1-0.1c0.1,0,0.1-0.1,0.1-0.1c0-0.1,0-0.1,0.1-0.1
	c0-0.1,0.1-0.2,0.1-0.2c0-0.1,0-0.2,0.1-0.2c0-0.1,0.1-0.2,0.1-0.2c0.1-0.2,0.3-0.3,0.4-0.5c0.1-0.1,0.1-0.1,0.1-0.2
	c0-0.1,0-0.2,0.1-0.2c0.1-0.2,0.1-0.4,0.2-0.5c0.1-0.1,0.3-0.3,0.2-0.5h0.1c0-0.2,0.2-0.3,0.4-0.4c0.2-0.2,0.3-0.4,0.4-0.6
	c0.1-0.2,0.3-0.2,0.5-0.4c0.1-0.1,0.2-0.2,0.2-0.3c0-0.1,0.1-0.2,0.1-0.3c0-0.2,0-0.2,0.1-0.3c0-0.1,0.2-0.2,0.2-0.2
	c0-0.1,0.1-0.2,0.1-0.3c0-0.1,0-0.2,0.1-0.3c0.2-0.4,0.6-0.7,0.7-1.1c0.1-0.2,0.1-0.3,0.1-0.6c0-0.2,0.2-0.4,0.3-0.6
	c0.1-0.2,0.2-0.4,0.3-0.6c0.1-0.2,0-0.4,0.2-0.5c0.2-0.2,0.5-0.2,0.6-0.5c0.1-0.2,0.1-0.4,0.2-0.5c0.1-0.2,0.4-0.2,0.6-0.4
	c0-0.1,0.1-0.2,0.1-0.2c0.1-0.1,0.1-0.2,0.2-0.3c0.3-0.3,0.3-0.7,0.5-1.1c0-0.2,0-0.2,0.2-0.3c0.1-0.1,0.2-0.2,0.2-0.3
	c0.1-0.2,0.2-0.3,0.2-0.5c0-0.2,0-0.2,0.2-0.3c0.1-0.1,0.1-0.2,0.2-0.3c0.2-0.2,0.3-0.3,0.5-0.5c0.1-0.1,0.1-0.2,0.2-0.3
	c0.1-0.1,0.1-0.2,0.1-0.3c0.1-0.2,0.3-0.4,0.4-0.5c0.3-0.4,0.5-0.7,0.7-1.1c0-0.1,0-0.2,0.1-0.3c0.1-0.1,0.2-0.2,0.2-0.2
	c0.2-0.2,0.3-0.3,0.4-0.5c0.1-0.2,0.1-0.4,0.3-0.6c0.2-0.2,0.4-0.3,0.5-0.5c0.2-0.2,0.4-0.4,0.5-0.6c0.1-0.2,0.1-0.3,0.2-0.5
	c0.2-0.2,0.4-0.4,0.5-0.6c0.2-0.2,0.3-0.4,0.4-0.5c0.2-0.2,0.3-0.4,0.5-0.6c0.1-0.1,0.1-0.2,0.1-0.2c0,0,0-0.1,0-0.1
	c0.1,0,0.1-0.1,0-0.1l0,0c0-0.3,0.3-0.4,0.4-0.6c0.1-0.2,0-0.3,0-0.5c0-0.3,0.3-0.4,0.5-0.6c0.2-0.2,0.2-0.2,0.2-0.5
	c0-0.1,0.1-0.1,0.1-0.2c0,0,0-0.1,0-0.1c0-0.2,0-0.2,0.2-0.3c0.2-0.2,0.4-0.3,0.5-0.5c0.2-0.2,0.4-0.5,0.6-0.6s0.4-0.2,0.5-0.3
	c0.1-0.1,0.1-0.2,0.2-0.3c0.1-0.1,0.1-0.2,0.2-0.3c0.1-0.2,0.3-0.3,0.5-0.5c0.2-0.2,0.5-0.4,0.6-0.6c0.1-0.1,0.1-0.2,0.1-0.3
	c0.1-0.1,0.2-0.2,0.2-0.2c0.3-0.4,0.7-0.8,1-1.1c0.3-0.3,0.7-0.7,1-1.1c0.2-0.2,0.3-0.3,0.4-0.6c0.1-0.2,0-0.4,0.1-0.5
	c0.1-0.2,0.5-0.3,0.6-0.5c0.2-0.2,0.3-0.3,0.5-0.5c0.2-0.2,0.4-0.3,0.6-0.5c0.2-0.1,0.4-0.2,0.5-0.3c0.2-0.1,0.5-0.3,0.5-0.6
	c0-0.1,0.1-0.2,0.1-0.3c0-0.1-0.1-0.2-0.1-0.2c0-0.1,0-0.2-0.1-0.3c0,0-0.1-0.1-0.1-0.1c0,0,0.1-0.1,0.2-0.2
	c0.1-0.1,0.1-0.2,0.2-0.3c0.1-0.1,0.1-0.1,0.2-0.1c0.5-0.1,0.7-0.5,1-0.9c0-0.1,0.1-0.1,0.1-0.2c0,0,0-0.1,0-0.1
	c0.1-0.1,0.1-0.1,0.2-0.2c0.2-0.2,0.4-0.4,0.6-0.6c0-0.1,0.2-0.2,0.2-0.3c0,0,0-0.1,0-0.1c0,0,0.1-0.1,0.1-0.1c0-0.1,0-0.2,0-0.3
	c0-0.2-0.1,0,0-0.2c0,0,0.1-0.1,0.1-0.1c0.3-0.3,0.8-0.7,1.1-1.1c0.3-0.3,1-0.5,1.1-1c0.1-0.2,0.1-0.4,0-0.6s-0.2-0.4,0-0.6
	s0.3-0.4,0.5-0.6c0.1-0.1,0.2-0.2,0.2-0.3c0-0.1,0.1-0.2,0.1-0.3c0.1-0.1,0.4-0.2,0.6-0.2c0.2-0.1,0.4-0.2,0.6-0.3
	C102.6,46.1,102.9,45.6,102.8,45.3z"/>
</svg>
